<svg width="36" height="36" viewBox="0 0 36 36" fill="none" xmlns="http://www.w3.org/2000/svg">
<path d="M35.5391 0C35.5774 11.8624 35.5774 23.7248 35.5774 35.6408C23.7251 35.6408 11.9009 35.6408 0.0383301 35.6408C2.43745e-09 23.7665 0 11.8922 0 0C11.8336 0 23.6672 0 35.5391 0ZM23.3041 23.1041C25.6825 23.1041 28.0608 23.1041 30.4498 23.1041C30.4498 19.5004 30.4498 15.9553 30.4498 12.363C28.0178 12.363 25.6013 12.363 23.1407 12.363C23.1407 9.92321 23.1407 7.53028 23.1407 5.1374C19.5212 5.1374 15.9466 5.1374 12.3522 5.1374C12.3522 5.33059 12.3525 5.49368 12.3521 5.65677C12.3474 7.86743 12.3427 10.0781 12.31 12.3057C12.2918 12.3184 12.2773 12.3345 12.1908 12.364C9.82292 12.364 7.45503 12.364 5.07262 12.364C5.07262 15.9599 5.07262 19.5144 5.07262 23.1036C7.50185 23.1036 9.90777 23.1036 12.3597 23.1036C12.3597 25.5319 12.3597 27.9259 12.3597 30.3189C15.9733 30.3189 19.5406 30.3189 23.1631 30.3189C23.1631 27.9309 23.1631 25.5595 23.1895 23.1689C23.2055 23.1537 23.2185 23.1363 23.3041 23.1041Z" fill="#ED1C24"/>
<path d="M12.3378 12.2887C12.3426 10.0781 12.3473 7.86743 12.352 5.65677C12.3523 5.49367 12.3521 5.33058 12.3521 5.13739C15.9464 5.13739 19.5211 5.13739 23.1406 5.13739C23.1406 7.53027 23.1406 9.92321 23.1406 12.363C25.6012 12.363 28.0177 12.363 30.4497 12.363C30.4497 15.9553 30.4497 19.5004 30.4497 23.1041C28.0607 23.1041 25.6824 23.1041 23.2442 23.1081C23.1773 23.1374 23.1701 23.1627 23.163 23.188C23.163 25.5595 23.163 27.9309 23.163 30.3189C19.5405 30.3189 15.9732 30.3189 12.3596 30.3189C12.3596 27.9259 12.3596 25.5319 12.3596 23.1036C9.90766 23.1036 7.50174 23.1036 5.07251 23.1036C5.07251 19.5144 5.07251 15.9599 5.07251 12.364C7.45492 12.364 9.82281 12.364 12.2503 12.3633C12.3191 12.338 12.3285 12.3134 12.3378 12.2887Z" fill="white"/>
</svg>
